<svg width="1200" height="800" viewBox="0 0 1200 800" fill="none" xmlns="http://www.w3.org/2000/svg">
  <!-- Background -->
  <rect width="1200" height="800" fill="#F7F5F3"/>
  
  <!-- Restaurant Interior Elements -->
  <!-- Tables -->
  <rect x="100" y="500" width="120" height="80" rx="8" fill="#E8E3DF"/>
  <rect x="300" y="480" width="120" height="80" rx="8" fill="#E8E3DF"/>
  <rect x="500" y="520" width="120" height="80" rx="8" fill="#E8E3DF"/>
  <rect x="800" y="490" width="120" height="80" rx="8" fill="#E8E3DF"/>
  <rect x="1000" y="510" width="120" height="80" rx="8" fill="#E8E3DF"/>
  
  <!-- Chairs -->
  <circle cx="140" cy="470" r="25" fill="#D4C4B0"/>
  <circle cx="180" cy="470" r="25" fill="#D4C4B0"/>
  <circle cx="340" cy="450" r="25" fill="#D4C4B0"/>
  <circle cx="380" cy="450" r="25" fill="#D4C4B0"/>
  <circle cx="540" cy="490" r="25" fill="#D4C4B0"/>
  <circle cx="580" cy="490" r="25" fill="#D4C4B0"/>
  <circle cx="840" cy="460" r="25" fill="#D4C4B0"/>
  <circle cx="880" cy="460" r="25" fill="#D4C4B0"/>
  <circle cx="1040" cy="480" r="25" fill="#D4C4B0"/>
  <circle cx="1080" cy="480" r="25" fill="#D4C4B0"/>
  
  <!-- Warm Lighting Effects -->
  <ellipse cx="200" cy="200" rx="80" ry="40" fill="#F4E6D7" opacity="0.6"/>
  <ellipse cx="600" cy="150" rx="100" ry="50" fill="#F4E6D7" opacity="0.6"/>
  <ellipse cx="1000" cy="180" rx="90" ry="45" fill="#F4E6D7" opacity="0.6"/>
  
  <!-- Windows with soft light -->
  <rect x="50" y="100" width="200" height="300" rx="10" fill="#FFFFFF" opacity="0.8"/>
  <rect x="950" y="120" width="180" height="280" rx="10" fill="#FFFFFF" opacity="0.8"/>
  
  <!-- Elegant decorative elements -->
  <path d="M400 100 Q600 50 800 100 Q600 150 400 100" fill="#E6D6C7" opacity="0.4"/>
  <path d="M300 300 Q500 250 700 300 Q500 350 300 300" fill="#E6D6C7" opacity="0.3"/>
  
  <!-- Subtle text overlay -->
  <text x="600" y="700" font-family="'Playfair Display', serif" font-size="36" fill="#8B7355" text-anchor="middle" opacity="0.7">Elegant Dining Experience</text>
</svg>